<svg id="logo" width="71" height="71" viewBox="0 0 71 71" xmlns="http://www.w3.org/2000/svg"><path d="M63 41V30l5.7 5.5L63 41zm-1.7 20.3H45.5l15.8-15.8v15.8zm-25.8 7.4L30 63h11l-5.5 5.7zM9.7 61.3V45.5l15.7 15.8H9.7zM2.2 35.5L7.8 30v11l-5.6-5.5zM9.7 9.7h15.7L9.7 25.4V9.7zm25.8-7.5L41 7.8H30l5.5-5.6zM53 19.8l8.3 8.2v15L53 51V19.8zM51.2 53L43 61.3H28L19.8 53h31.4zM18 35.5v15.7L9.6 43V28l8.2-8.2v15.7zM19.7 18L28 9.6h15L51 18H19.8zm31.4 19.7v13.5H37.7l13.5-13.5zm-31.4 0l13.5 13.5H19.8V37.7zm0-4.4V19.8h13.5L19.8 33.3zm24.7 2.2v-6.3l6.3 6.3-6.3 6.3v-6.3zm-2.7 9l-6.3 6.3-6.3-6.3h12.6zm-15.3-9v6.3l-6.3-6.3 6.3-6.3v6.3zm2.7-9l6.3-6.3 6.3 6.3H29.2zm13.4 11.2v5h-5l5-5zm-14.3 0l5 5h-5v-5zm0-4.4v-5h5l-5 5zm14 2.2l-6.8 6.8-6.8-6.8 6.8-6.8 6.8 6.8zm.3-2.2l-5-5h5v5zm8.6 0L37.7 19.8h13.5v13.5zm10-23.6v15.7L45.6 9.7h15.8zm9.5 25L63 27.4V8.7c0-.5-.3-1-.8-1H43.7L36 .4C36 0 35.3 0 35 .3l-7.5 7.5H8.7c-.5 0-1 .4-1 1v18.5L.4 34.8c-.4.4-.4 1 0 1.3l7.5 7.7v18.5c0 .5.4 1 1 1h18.5l7.5 7.5c.2.2.4.3.7.3.2 0 .5 0 .6-.3l7.7-7.6h18.5c.5 0 1-.3 1-.8V43.7l7.5-7.6c.4-.2.4-.8 0-1.2z" fill="#4F4F4F"/></svg>